<svg width="97" height="20" viewBox="0 0 97 20" fill="none" xmlns="http://www.w3.org/2000/svg">
<rect width="97" height="20" />
<path d="M4.93 0.939932C6.68933 0.939932 8.04267 1.40393 8.99 2.33193C9.93733 3.2406 10.411 4.5456 10.411 6.24693C10.411 8.2576 9.831 9.83327 8.671 10.9739C7.53033 12.0953 5.916 12.6559 3.828 12.6559H1.45V13.7869L1.508 19.4999H-7.52509e-07L0.0869992 13.8739L-7.52509e-07 0.968932L4.93 0.939932ZM4.698 11.3799C6.05133 11.2059 7.08567 10.6839 7.801 9.81393C8.51633 8.94393 8.874 7.7936 8.874 6.36293C8.874 5.02893 8.51633 4.01393 7.801 3.31793C7.105 2.62193 6.09 2.2546 4.756 2.21593L1.537 2.27393L1.479 11.3219L4.698 11.3799ZM15.89 15.0339L15.919 19.4999H14.498L14.556 15.1499L14.498 5.14493H15.948L15.89 15.0339ZM33.1456 15.3529V19.4999H31.6376L23.1696 7.52293H23.0536L23.0246 14.8599L23.0536 19.4999H21.7196L21.7776 15.2659L21.7486 5.14493H23.2566L31.7246 17.1509H31.8696V5.20293L33.2036 5.11593L33.1456 15.3529ZM44.2603 5.02893C45.7297 5.02893 47.2087 5.3866 48.6973 6.10193L48.2333 7.46493H48.0303C46.677 6.65293 45.3623 6.24693 44.0863 6.24693C42.2497 6.24693 40.848 6.76893 39.8813 7.81293C38.934 8.85693 38.4603 10.4229 38.4603 12.5109C38.4603 16.4549 40.1713 18.4269 43.5933 18.4269C44.1927 18.4269 44.7533 18.3883 45.2753 18.3109C45.7973 18.2143 46.4643 18.0403 47.2763 17.7889V15.8749L47.2473 13.9319L48.5813 13.8449V18.8329C47.518 19.1229 46.6093 19.3259 45.8553 19.4419C45.1013 19.5579 44.328 19.6159 43.5353 19.6159C41.3893 19.6159 39.7557 19.0069 38.6343 17.7889C37.513 16.5709 36.9523 14.8213 36.9523 12.5399C36.9523 10.1233 37.5903 8.26727 38.8663 6.97193C40.1423 5.6766 41.9403 5.02893 44.2603 5.02893ZM61.002 18.4269L60.857 19.4999H53.636L53.665 15.1499L53.636 5.14493H55.057L54.999 15.0339L55.028 18.2819H60.886L61.002 18.4269ZM75.0987 19.4999H73.6197L73.3007 18.1949L72.2277 15.3239H65.3837L64.2527 18.1369L63.8757 19.4999H62.4257L68.1967 5.14493H69.8207L75.0987 19.4999ZM71.7927 14.1349L69.0377 6.68193H68.8927L65.8767 14.1349L68.7767 14.1639L71.7927 14.1349ZM84.6451 5.02893C86.1144 5.02893 87.5934 5.3866 89.0821 6.10193L88.6181 7.46493H88.4151C87.0618 6.65293 85.7471 6.24693 84.4711 6.24693C82.6344 6.24693 81.2328 6.76893 80.2661 7.81293C79.3188 8.85693 78.8451 10.4229 78.8451 12.5109C78.8451 16.4549 80.5561 18.4269 83.9781 18.4269C84.5774 18.4269 85.1381 18.3883 85.6601 18.3109C86.1821 18.2143 86.8491 18.0403 87.6611 17.7889V15.8749L87.6321 13.9319L88.9661 13.8449V18.8329C87.9028 19.1229 86.9941 19.3259 86.2401 19.4419C85.4861 19.5579 84.7128 19.6159 83.9201 19.6159C81.7741 19.6159 80.1404 19.0069 79.0191 17.7889C77.8978 16.5709 77.3371 14.8213 77.3371 12.5399C77.3371 10.1233 77.9751 8.26727 79.2511 6.97193C80.5271 5.6766 82.3251 5.02893 84.6451 5.02893ZM95.4417 15.0339L95.4707 19.4999H94.0497L94.1077 15.1499L94.0497 5.14493H95.4997L95.4417 15.0339Z" fill="black"/>
<path d="M96.071 1.49993C80.1899 1.49994 69.3519 1.49994 53.071 1.49993" stroke="black"/>
<path d="M96.0678 0.499933C80.189 0.784991 69.3526 0.979525 53.0741 1.27175" stroke="black"/>
</svg>
